<svg width="176" height="55" viewBox="0 0 176 55" fill="none" xmlns="http://www.w3.org/2000/svg">
<path d="M27.4946 0.000122159C22.0563 0.000557707 16.7403 1.61359 12.2188 4.63524C7.69727 7.65689 4.17328 11.9515 2.09245 16.9759C0.0116195 22.0003 -0.532594 27.5289 0.528624 32.8626C1.58984 38.1963 4.20883 43.0956 8.05441 46.9409C11.9 50.7861 16.7995 53.4047 22.1333 54.4655C27.4671 55.5263 32.9956 54.9817 38.0199 52.9004C43.0441 50.8192 47.3384 47.2949 50.3597 42.7731C53.381 38.2513 54.9936 32.9352 54.9936 27.4969C54.9936 23.8858 54.2823 20.31 52.9003 16.9738C51.5183 13.6376 49.4927 10.6063 46.9392 8.05297C44.3856 5.49963 41.3542 3.47427 38.0178 2.09256C34.6815 0.710845 31.1057 -0.000167055 27.4946 0.000122159ZM16.7985 12.839L23.1585 12.4558L22.2181 18.2586L21.117 17.1575L21.0906 17.1994C19.7913 19.2651 20.1723 21.802 21.8834 23.5109L31.6039 33.2315C34.3523 35.9798 30.1174 40.1486 27.4021 37.4333L18.7166 28.7566C14.092 24.1143 13.5414 19.0162 17.8181 13.9093L17.8357 13.874L16.7985 12.839ZM20.4277 42.1284L11.3987 33.0993C9.09514 30.7914 13.3806 26.5125 15.6775 28.8204L25.713 38.8559C27.1158 40.2587 28.9943 40.8996 30.897 40.2235L30.2936 43.9496L34.3523 43.6898C29.3907 47.1825 24.6824 46.3721 20.4299 42.1196L20.4277 42.1284ZM38.1907 42.1636L31.8308 42.5468L32.7711 36.744L33.8722 37.8451L33.8986 37.8033C35.1979 35.7376 34.8169 33.2006 33.1058 31.4917L23.3787 21.7535C20.6281 19.0052 24.8652 14.8386 27.5805 17.5517L36.2682 26.2395C40.9105 30.8817 41.45 35.9798 37.1733 41.0868L37.1513 41.1154L38.1907 42.1636ZM39.3161 26.1954L29.2872 16.1533C27.8844 14.7505 26.0059 14.1097 24.1032 14.7858L24.7066 11.0596L20.6325 11.3063C25.6007 7.81356 30.309 8.62398 34.5615 12.8764L43.5906 21.9055C45.9007 24.2244 41.6196 28.4967 39.3183 26.1888L39.3161 26.1954Z" fill="white"/>
<path fill-rule="evenodd" clip-rule="evenodd" d="M68.667 31.3001C69.2269 31.47 69.7989 31.5974 70.3781 31.6811H70.3913C71.3933 31.9013 73.3577 32.4034 73.3577 33.7269C73.3557 34.0382 73.2676 34.3428 73.1032 34.6071C72.9388 34.8714 72.7045 35.085 72.4262 35.2244C71.76 35.5661 71.0186 35.7349 70.2702 35.7155C69.3144 35.7155 68.3146 35.5525 67.5042 35.0174C67.2001 34.7971 66.9469 34.5139 66.7619 34.1872C66.5768 33.8604 66.4642 33.4976 66.4317 33.1235H62.5801C62.5999 34.7025 63.0756 36.1229 64.3418 37.1249C65.7601 38.2943 67.8962 38.5519 69.6668 38.5519C71.5144 38.5519 73.7893 38.3119 75.3243 37.1822C76.7051 36.1493 77.2798 34.7157 77.2798 33.009C77.2798 31.8947 76.9627 30.8927 76.1457 30.1153C75.0446 29.1926 73.078 28.598 71.7038 28.2478C71.5107 28.2478 71.3181 28.2279 71.1291 28.1883C70.8956 28.1355 70.6644 28.065 70.4376 27.9923C69.542 27.8303 68.6709 27.5543 67.8456 27.1709C67.3743 26.9243 66.8392 26.5323 66.8392 25.9421C66.8263 25.6638 66.8854 25.3869 67.0108 25.138C67.1362 24.8892 67.3235 24.677 67.5549 24.5217C68.1539 24.1649 68.9775 24.0812 69.6602 24.0812C70.4706 24.0812 71.3207 24.2288 71.9857 24.7221L72.0055 24.7375L72.0232 24.7551C72.192 24.9283 72.363 25.0994 72.5363 25.2682L72.5649 25.2968L72.5847 25.3321C72.7369 25.6272 72.9694 25.8733 73.2554 26.042C73.5414 26.2107 73.8692 26.2952 74.2011 26.2856H76.6676C76.6146 25.5782 76.4214 24.8883 76.0993 24.2562C75.7771 23.624 75.3325 23.0623 74.7913 22.6035C73.3026 21.5024 71.4021 21.1787 69.5897 21.1787C67.8522 21.1787 66.1212 21.5333 64.7162 22.6079C64.1498 23.0749 63.6969 23.6644 63.3917 24.3321C63.0865 24.9997 62.937 25.7279 62.9545 26.4618C62.9545 27.5982 63.3002 28.5869 64.1503 29.3555C65.1457 30.3509 67.2906 30.9631 68.6163 31.2869H68.6295H68.6428L68.667 31.3001Z" fill="white"/>
<path fill-rule="evenodd" clip-rule="evenodd" d="M79.5569 29.7695C79.5569 32.0554 79.9973 34.4955 81.5587 36.2572C82.9989 37.9221 84.9413 38.5586 87.1083 38.5586C88.8568 38.5586 90.5679 38.1798 91.9906 37.1227C93.2061 36.237 94.0868 34.9667 94.4901 33.5177H91.6514C91.293 33.4969 90.937 33.5893 90.634 33.782C90.4905 33.8846 90.3629 34.0077 90.2552 34.1475L90.2332 34.218L90.1804 34.2709L89.8192 34.6298C89.6945 34.7561 89.5443 34.8544 89.3787 34.9183C88.7618 35.253 88.0676 35.4193 87.3659 35.4006C86.3045 35.4006 85.2958 35.1033 84.6066 34.2554C83.8226 33.4164 83.5935 32.1898 83.5583 31.0799V30.7671H94.86C94.86 30.7077 94.86 30.6482 94.86 30.6152V29.8995C94.86 27.596 94.4064 25.2044 92.8582 23.414C91.3299 21.7491 89.2488 21.1765 87.0466 21.1765C84.8796 21.1765 82.9373 21.813 81.497 23.4756C80.0017 25.2132 79.5591 27.5387 79.5591 29.7717L79.5569 29.7695ZM83.5605 28.1333C83.6001 27.0983 83.8732 26.083 84.6242 25.3321C84.9598 25.0015 85.3591 24.7426 85.7979 24.5711C86.2366 24.3996 86.7057 24.3191 87.1765 24.3345C88.1653 24.3345 89.1101 24.5987 89.7972 25.3409C90.4843 26.083 90.7155 27.1489 90.786 28.1223L90.808 28.446H83.5407L83.5539 28.1311L83.5605 28.1333Z" fill="white"/>
<path fill-rule="evenodd" clip-rule="evenodd" d="M132.82 23.5923C131.428 25.4136 130.998 27.7215 130.998 29.9788C130.998 32.236 131.408 34.5505 132.817 36.3453C133.451 37.1385 134.307 37.725 135.275 38.03C136.307 38.386 137.392 38.5676 138.484 38.5674C140.468 38.5765 142.415 38.0295 144.104 36.9884C146.158 35.7397 146.623 33.2446 146.623 31.0138V18.3401C146.621 18.0934 146.569 17.8496 146.472 17.6228C146.375 17.396 146.234 17.1907 146.057 17.0187C145.889 16.8314 145.682 16.6821 145.452 16.5807C145.221 16.4793 144.972 16.4282 144.72 16.4308H142.813V24.5789L142.254 23.698C141.754 22.9158 141.077 22.2618 140.278 21.7887C139.439 21.3682 138.509 21.1588 137.57 21.1787C135.588 21.1787 134.02 22.02 132.813 23.6012L132.82 23.5923ZM135.841 25.9553C136.161 25.4848 136.593 25.1022 137.099 24.8425C137.605 24.5827 138.168 24.4543 138.737 24.4688C139.317 24.4495 139.893 24.567 140.419 24.8119C140.945 25.0568 141.406 25.4221 141.765 25.8782C142.56 26.9926 142.796 28.413 142.796 29.7541C142.796 31.0953 142.613 32.7139 141.835 33.8833C141.505 34.3611 141.059 34.748 140.539 35.0082C140.02 35.2684 139.443 35.3935 138.862 35.372C137.612 35.372 136.561 34.9139 135.823 33.8833C134.995 32.7227 134.793 31.1371 134.793 29.7453C134.793 28.424 135.013 27.0102 135.826 25.9311L135.841 25.9553Z" fill="white"/>
<path fill-rule="evenodd" clip-rule="evenodd" d="M150.953 23.4734C149.457 25.211 149.015 27.5365 149.015 29.7695C149.015 32.0554 149.455 34.4955 151.019 36.2572C152.459 37.9221 154.401 38.5586 156.568 38.5586C158.317 38.5586 160.028 38.1798 161.451 37.1227C162.666 36.2368 163.547 34.9666 163.95 33.5177H161.111C160.753 33.4967 160.397 33.5892 160.094 33.782C159.951 33.8846 159.823 34.0078 159.715 34.1475L159.693 34.218L159.64 34.2709L159.281 34.6298C159.157 34.7561 159.006 34.8544 158.841 34.9183C158.224 35.253 157.53 35.4193 156.828 35.4006C155.767 35.4006 154.758 35.1033 154.069 34.2554C153.287 33.4164 153.056 32.1898 153.02 31.0799V30.7671H164.322C164.322 30.7077 164.322 30.6482 164.322 30.6152V29.8995C164.322 27.596 163.869 25.2044 162.323 23.414C160.792 21.7491 158.713 21.1765 156.511 21.1765C154.344 21.1765 152.402 21.813 150.961 23.4756L150.953 23.4734ZM153.018 28.1333C153.06 27.0983 153.331 26.083 154.082 25.3321C154.418 25.0015 154.817 24.7426 155.256 24.5711C155.694 24.3996 156.163 24.3191 156.634 24.3345C157.623 24.3345 158.568 24.5987 159.255 25.3409C159.942 26.083 160.173 27.1489 160.244 28.1223L160.266 28.446H152.998L153.012 28.1311L153.018 28.1333Z" fill="white"/>
<path fill-rule="evenodd" clip-rule="evenodd" d="M167.447 26.028C166.892 27.3031 166.725 28.7763 166.725 30.1571V38.2304H170.669V29.6418C170.669 28.5605 170.872 27.3647 171.667 26.5587C172.462 25.7527 173.605 25.5611 174.673 25.5611H175.866V21.5685H175.514C174.39 21.5646 173.271 21.7127 172.186 22.0089C171.177 22.2759 170.232 22.7432 169.407 23.3831C168.549 24.0904 167.877 24.9979 167.452 26.0258L167.447 26.028Z" fill="white"/>
<path fill-rule="evenodd" clip-rule="evenodd" d="M107.858 27.488V36.3189C107.858 38.8668 111.725 38.8162 111.725 36.3189V28.4284C111.725 24.079 109.522 21.6169 105.369 21.2492V20.2604L102.242 23.033L105.369 25.2902V24.2794C106.09 24.4431 106.732 24.8517 107.186 25.4355C107.64 26.0193 107.877 26.7423 107.858 27.4814V27.488Z" fill="white"/>
<path fill-rule="evenodd" clip-rule="evenodd" d="M97.2671 28.4086V36.6162C97.2671 38.7436 101.205 38.7436 101.205 36.6162V27.4991C101.205 26.1205 101.852 25.0392 102.966 24.5283L100.984 23.1035L102.986 21.3285C99.2733 21.9451 97.2605 24.2795 97.2605 28.4086H97.2671Z" fill="white"/>
<path fill-rule="evenodd" clip-rule="evenodd" d="M118.01 27.488V36.3189C118.01 38.8668 114.143 38.8162 114.143 36.3189V28.4284C114.143 24.079 116.345 21.6169 120.498 21.2492V20.2604L123.625 23.033L120.498 25.2902V24.2794C119.777 24.4431 119.135 24.8517 118.681 25.4355C118.228 26.0193 117.99 26.7423 118.01 27.4814V27.488Z" fill="white"/>
<path fill-rule="evenodd" clip-rule="evenodd" d="M128.607 28.4086V36.6162C128.607 38.7436 124.669 38.7436 124.669 36.6162V27.4991C124.669 26.1205 124.022 25.0392 122.908 24.5283L124.89 23.1035L122.881 21.3285C126.594 21.9451 128.607 24.2795 128.607 28.4086Z" fill="white"/>
</svg>
